<?xml version="1.0" encoding="utf-8"?>
<!-- Generator: Adobe Illustrator 19.0.0, SVG Export Plug-In . SVG Version: 6.00 Build 0)  -->
<svg version="1.1" id="Layer_1" xmlns="http://www.w3.org/2000/svg" xmlns:xlink="http://www.w3.org/1999/xlink" x="0px" y="0px"
	 viewBox="-49 141 512 512" style="enable-background:new -49 141 512 512;" xml:space="preserve">
<style type="text/css">
	.st0{fill:#FFFFFF;}
</style>
<g transform="translate(0,0)">
	<path class="st0" d="M256,160.4c-46.5,0-85.1,32.2-95.8,75.4l-4.7,18.8l-11.8-15.3c-12.8-16.6-32.5-27.5-54.8-27.5
		c-38.5,0-70,31.5-70,70.1c0,6.1,1.4,12.2,3.3,18.8l2.9,10.4l-10.7,1.4c-25,3.3-44.4,24.6-44.4,50.6c0,28.3,22.8,51.1,51.1,51.1
		c18.2,0,34.3-9.8,43.3-24.3l7-11.2l8.2,10.2C95,408,118.6,420.3,145,420.3c30.6,0,56.6-16.2,71.3-40.7l7.9-13.2l8,13.2
		c9,14.7,24.8,24.2,43.3,24.2c15,0,28.3-6.3,37.6-16.5l6.5-7.1l6.9,6.6c12.6,12.1,29.1,19.4,47.8,19.4c38.5,0,69.9-31.5,69.9-70
		c0-38.5-31.4-69.5-69.9-69.5c-3,0-5.8,0.2-8.6,0.5l-10.4,1.3l-0.1-10.5C354.6,203.8,310.4,160.4,256,160.4L256,160.4z M310.1,428.1
		c-5.8,2-12,3.3-18.3,3.8l7.6,26.6l17.9-5.4L310.1,428.1L310.1,428.1z M171.2,466.2c-6,1.6-12.2,2.7-18.5,3.1l9,31.4l17.9-5.4
		L171.2,466.2L171.2,466.2z M241.8,442.6l-17.9,5.4l16.3,57.2l17.9-5.4L241.8,442.6L241.8,442.6z M317.8,516.4l-17.9,5.4l12.2,42.7
		l17.9-5.4L317.8,516.4L317.8,516.4z M76,445.8l-17.9,5.4L72.6,502l17.9-5.4L76,445.8L76,445.8z M224.9,540.4l-17.9,5.3l15.9,55.7
		l17.9-5.4L224.9,540.4L224.9,540.4z M380.9,448.4l-17.9,5.4l8.6,30.2l17.9-5.4L380.9,448.4L380.9,448.4z M144,547.5l-17.9,5.4
		l9,31.7l17.9-5.4L144,547.5z M49.1,540.4l-17.9,5.4l9,31.7l17.9-5.4L49.1,540.4z"/>
</g>
</svg>
