<svg xmlns="http://www.w3.org/2000/svg" viewBox="0 0 512 512" style="height: 512px; width: 512px;"><g class="" transform="translate(0,0)" style="touch-action: none;"><path d="M503.95 94.41L503.74 403.55C503.74 405.47 502.57 407.18 500.8 407.89L263.54 502.64L263.54 503.19C263.54 504.74 262.76 506.19 261.48 507.07C260.68 507.59 259.78 507.87 258.85 507.87C258.26 507.87 257.67 507.74 257.12 507.53L254.17 506.35L251.23 507.53C249.77 508.09 248.16 507.9 246.88 507.06C245.59 506.18 244.81 504.73 244.81 503.17L244.81 502.62L7.56 407.87C5.78 407.18 4.62 405.46 4.62 403.55L3.93 94.18C3.93 92.22 5.15 90.45 7 89.78L252.54 0.28C253.59 -0.09 254.73 -0.09 255.75 0.28L500.86 90C502.71 90.69 503.92 92.43 503.95 94.41ZM244.8 482.46L244.8 203.16L23.32 114.73L23.32 394.03L244.8 482.46ZM473.78 99.05L254.19 19.62L36.55 99.85L254.16 186.76L473.78 99.05ZM484.99 114.73L263.52 203.16L263.52 482.46L484.99 394.03L484.99 114.73ZM110.64 290.55C110.64 277.62 120.95 271.23 133.69 276.28C146.41 281.35 156.73 295.94 156.73 308.9C156.73 321.83 146.41 328.23 133.68 323.17C120.95 318.1 110.63 303.49 110.64 290.55ZM45.84 193.91C45.84 180.97 56.16 174.58 68.89 179.65C81.62 184.71 91.94 199.31 91.94 212.26C91.94 225.21 81.61 231.58 68.88 226.53C56.14 221.45 45.84 206.86 45.84 193.91ZM175.45 245.48C175.45 232.54 185.77 226.15 198.5 231.22C211.23 236.28 221.55 250.88 221.55 263.83C221.55 276.78 211.22 283.16 198.5 278.09C185.76 273.03 175.45 258.43 175.45 245.48ZM45.81 329.38C45.82 316.45 56.14 310.06 68.87 315.12C81.6 320.19 91.92 334.78 91.92 347.74C91.92 360.68 81.59 367.07 68.86 362.01C56.12 356.94 45.81 342.33 45.81 329.38ZM175.43 380.97C175.44 368.01 185.76 361.64 198.49 366.7C211.22 371.76 221.54 386.35 221.54 399.32C221.54 412.25 211.21 418.64 198.48 413.58C185.74 408.51 175.43 393.9 175.43 380.97ZM212.52 97.13C206.66 106.52 188 113.08 170.78 111.78C153.56 110.49 144.34 101.84 150.18 92.47C156.03 83.09 174.69 76.53 191.92 77.82C209.12 79.11 218.35 87.76 212.52 97.13ZM335.69 106.38C329.85 115.77 311.17 122.32 293.96 121.03C276.73 119.74 267.52 111.08 273.36 101.71C279.2 92.32 297.88 85.77 315.1 87.06C332.3 88.36 341.53 97.01 335.69 106.38ZM359.47 323.46C351.51 313.7 353.63 295.15 364.2 282.04C374.75 268.92 389.75 266.22 397.68 275.98C405.63 285.73 403.52 304.29 392.96 317.4C382.41 330.52 367.41 333.21 359.47 323.46Z" fill="#fff" fill-opacity="1"></path></g></svg>